{"accessors":[{"bufferView":0,"componentType":5125,"count":588,"max":[331],"min":[0],"type":"SCALAR"},{"bufferView":1,"componentType":5126,"count":332,"max":[1.0000011920928955,1.0,1.000001072883606],"min":[-1.0,-8.328615188598633,-1.0],"type":"VEC3"},{"bufferView":2,"componentType":5126,"count":332,"max":[0.9238796234130859,1.0,0.9238795638084412],"min":[-0.9238796234130859,-1.0,-0.9238795638084412],"type":"VEC3"},{"bufferView":3,"componentType":5125,"count":588,"max":[331],"min":[0],"type":"SCALAR"},{"bufferView":4,"componentType":5126,"count":332,"max":[1.0000008344650269,1.0,1.0],"min":[-1.0,-8.32861614227295,-1.000000238418579],"type":"VEC3"},{"bufferView":5,"componentType":5126,"count":332,"max":[0.9238796234130859,1.0,0.9238795638084412],"min":[-0.9238796234130859,-1.0,-0.9238795638084412],"type":"VEC3"},{"bufferView":6,"componentType":5125,"count":588,"max":[339],"min":[0],"type":"SCALAR"},{"bufferView":7,"componentType":5126,"count":340,"max":[1.0000007152557373,1.0,1.0],"min":[-1.0,-8.32861614227295,-1.000000238418579],"type":"VEC3"},{"bufferView":8,"componentType":5126,"count":340,"max":[0.9238796234130859,1.0,0.9238795638084412],"min":[-0.9238796234130859,-1.0,-0.9238795638084412],"type":"VEC3"},{"bufferView":9,"componentType":5125,"count":96,"max":[63],"min":[0],"type":"SCALAR"},{"bufferView":10,"componentType":5126,"count":64,"max":[1.0000001192092896,1.0786495208740234,1.2129392623901367],"min":[-1.0000001192092896,-1.2417811155319214,-1.2458621263504028],"type":"VEC3"},{"bufferView":11,"componentType":5126,"count":64,"max":[1.0,0.9901672005653381,0.9861726760864258],"min":[-1.0,-0.9963411092758179,-0.9779270887374878],"type":"VEC3"},{"bufferView":12,"componentType":5125,"count":198,"max":[118],"min":[0],"type":"SCALAR"},{"bufferView":13,"componentType":5126,"count":119,"max":[1.0,5.024421215057373,1.0000097751617432],"min":[-7.363197326660156,-1.0000011920928955,-54.75294494628906],"type":"VEC3"},{"bufferView":14,"componentType":5126,"count":119,"max":[1.0,0.9967182278633118,1.0],"min":[-1.0,-1.0,-0.9996348023414612],"type":"VEC3"},{"bufferView":15,"componentType":5125,"count":588,"max":[331],"min":[0],"type":"SCALAR"},{"bufferView":16,"componentType":5126,"count":332,"max":[1.0000022649765015,1.0,1.0000008344650269],"min":[-1.0,-8.328615188598633,-1.0],"type":"VEC3"},{"bufferView":17,"componentType":5126,"count":332,"max":[0.9238796234130859,1.0,0.9238795638084412],"min":[-0.9238795638084412,-1.0,-0.9238795638084412],"type":"VEC3"},{"bufferView":18,"componentType":5125,"count":486,"max":[209],"min":[0],"type":"SCALAR"},{"bufferView":19,"componentType":5126,"count":210,"max":[1.0,1.0,1.0],"min":[-1.0,-1.0,-1.0],"type":"VEC3"},{"bufferView":20,"componentType":5126,"count":210,"max":[0.6804138422012329,1.0,1.0],"min":[-1.0,-0.9999999403953552,-1.0],"type":"VEC3"},{"bufferView":21,"componentType":5125,"count":168,"max":[73],"min":[0],"type":"SCALAR"},{"bufferView":22,"componentType":5126,"count":74,"max":[1.0,1.0,1.0],"min":[-0.8282962441444397,-1.0,-1.0],"type":"VEC3"},{"bufferView":23,"componentType":5126,"count":74,"max":[1.0,0.37230274081230164,-0.0],"min":[-0.8385160565376282,-0.22661365568637848,-0.9739847779273987],"type":"VEC3"},{"bufferView":24,"componentType":5125,"count":102,"max":[43],"min":[0],"type":"SCALAR"},{"bufferView":25,"componentType":5126,"count":44,"max":[0.39981523156166077,0.6926960945129395,-0.7010013461112976],"min":[-0.39981523156166077,0.26569467782974243,-0.8877109289169312],"type":"VEC3"},{"bufferView":26,"componentType":5126,"count":44,"max":[0.9259878993034363,0.6956751942634583,0.7183564305305481],"min":[-0.9259878993034363,-0.6956753730773926,-0.9281114339828491],"type":"VEC3"},{"bufferView":27,"componentType":5125,"count":180,"max":[83],"min":[0],"type":"SCALAR"},{"bufferView":28,"componentType":5126,"count":84,"max":[1.5283432006835938,1.1250829696655273,1.5283430814743042],"min":[-1.5283432006835938,-1.11417818069458,-1.5283430814743042],"type":"VEC3"},{"bufferView":29,"componentType":5126,"count":84,"max":[0.9238796234130859,1.0,0.9238795638084412],"min":[-0.9238794445991516,-1.0,-0.9238795638084412],"type":"VEC3"},{"bufferView":30,"componentType":5125,"count":48,"max":[31],"min":[0],"type":"SCALAR"},{"bufferView":31,"componentType":5126,"count":32,"max":[1.0,1.0,1.0],"min":[-1.0,-1.0,-1.0],"type":"VEC3"},{"bufferView":32,"componentType":5126,"count":32,"max":[0.9238795638084412,0.0,0.9238795638084412],"min":[-0.9238795042037964,0.0,-0.9238795638084412],"type":"VEC3"},{"bufferView":33,"componentType":5125,"count":144,"max":[83],"min":[0],"type":"SCALAR"},{"bufferView":34,"componentType":5126,"count":84,"max":[1.803155541419983,-1.0,1.8031553030014038],"min":[-1.8031553030014038,-2.014643430709839,-1.8031553030014038],"type":"VEC3"},{"bufferView":35,"componentType":5126,"count":84,"max":[0.9238796234130859,0.24274492263793945,0.9238795042037964],"min":[-0.9238795042037964,-1.0,-0.9238795638084412],"type":"VEC3"},{"bufferView":36,"componentType":5125,"count":84,"max":[47],"min":[0],"type":"SCALAR"},{"bufferView":37,"componentType":5126,"count":48,"max":[1.0,1.0,1.0],"min":[-1.0,-1.0,-1.0],"type":"VEC3"},{"bufferView":38,"componentType":5126,"count":48,"max":[0.9238795638084412,0.9999999403953552,0.9238795638084412],"min":[-0.9238795042037964,-0.9999999403953552,-0.9238795638084412],"type":"VEC3"},{"bufferView":39,"componentType":5125,"count":276,"max":[143],"min":[0],"type":"SCALAR"},{"bufferView":40,"componentType":5126,"count":144,"max":[1.5305535793304443,2.222397565841675,1.5305535793304443],"min":[-1.5305535793304443,-1.0,-1.5305535793304443],"type":"VEC3"},{"bufferView":41,"componentType":5126,"count":144,"max":[0.9238795042037964,1.0,0.9238795042037964],"min":[-0.9238795638084412,-1.0,-0.9238795042037964],"type":"VEC3"},{"bufferView":42,"componentType":5125,"count":1224,"max":[815],"min":[0],"type":"SCALAR"},{"bufferView":43,"componentType":5126,"count":816,"max":[21.793041229248047,4.390924453735352,7.534885883331299],"min":[-21.793041229248047,0.34177660942077637,-7.092896461486816],"type":"VEC3"},{"bufferView":44,"componentType":5126,"count":816,"max":[1.0,0.9999957084655762,0.999998927116394],"min":[-1.0,-0.9999955892562866,-0.9997326135635376],"type":"VEC3"}],"asset":{"generator":"Khronos Blender glTF 2.0 exporter","version":"2.0"},"bufferViews":[{"buffer":0,"byteLength":2352,"byteOffset":0,"target":34963},{"buffer":0,"byteLength":3984,"byteOffset":2352,"target":34962},{"buffer":0,"byteLength":3984,"byteOffset":6336,"target":34962},{"buffer":0,"byteLength":2352,"byteOffset":10320,"target":34963},{"buffer":0,"byteLength":3984,"byteOffset":12672,"target":34962},{"buffer":0,"byteLength":3984,"byteOffset":16656,"target":34962},{"buffer":0,"byteLength":2352,"byteOffset":20640,"target":34963},{"buffer":0,"byteLength":4080,"byteOffset":22992,"target":34962},{"buffer":0,"byteLength":4080,"byteOffset":27072,"target":34962},{"buffer":0,"byteLength":384,"byteOffset":31152,"target":34963},{"buffer":0,"byteLength":768,"byteOffset":31536,"target":34962},{"buffer":0,"byteLength":768,"byteOffset":32304,"target":34962},{"buffer":0,"byteLength":792,"byteOffset":33072,"target":34963},{"buffer":0,"byteLength":1428,"byteOffset":33864,"target":34962},{"buffer":0,"byteLength":1428,"byteOffset":35292,"target":34962},{"buffer":0,"byteLength":2352,"byteOffset":36720,"target":34963},{"buffer":0,"byteLength":3984,"byteOffset":39072,"target":34962},{"buffer":0,"byteLength":3984,"byteOffset":43056,"target":34962},{"buffer":0,"byteLength":1944,"byteOffset":47040,"target":34963},{"buffer":0,"byteLength":2520,"byteOffset":48984,"target":34962},{"buffer":0,"byteLength":2520,"byteOffset":51504,"target":34962},{"buffer":0,"byteLength":672,"byteOffset":54024,"target":34963},{"buffer":0,"byteLength":888,"byteOffset":54696,"target":34962},{"buffer":0,"byteLength":888,"byteOffset":55584,"target":34962},{"buffer":0,"byteLength":408,"byteOffset":56472,"target":34963},{"buffer":0,"byteLength":528,"byteOffset":56880,"target":34962},{"buffer":0,"byteLength":528,"byteOffset":57408,"target":34962},{"buffer":0,"byteLength":720,"byteOffset":57936,"target":34963},{"buffer":0,"byteLength":1008,"byteOffset":58656,"target":34962},{"buffer":0,"byteLength":1008,"byteOffset":59664,"target":34962},{"buffer":0,"byteLength":192,"byteOffset":60672,"target":34963},{"buffer":0,"byteLength":384,"byteOffset":60864,"target":34962},{"buffer":0,"byteLength":384,"byteOffset":61248,"target":34962},{"buffer":0,"byteLength":576,"byteOffset":61632,"target":34963},{"buffer":0,"byteLength":1008,"byteOffset":62208,"target":34962},{"buffer":0,"byteLength":1008,"byteOffset":63216,"target":34962},{"buffer":0,"byteLength":336,"byteOffset":64224,"target":34963},{"buffer":0,"byteLength":576,"byteOffset":64560,"target":34962},{"buffer":0,"byteLength":576,"byteOffset":65136,"target":34962},{"buffer":0,"byteLength":1104,"byteOffset":65712,"target":34963},{"buffer":0,"byteLength":1728,"byteOffset":66816,"target":34962},{"buffer":0,"byteLength":1728,"byteOffset":68544,"target":34962},{"buffer":0,"byteLength":4896,"byteOffset":70272,"target":34963},{"buffer":0,"byteLength":9792,"byteOffset":75168,"target":34962},{"buffer":0,"byteLength":9792,"byteOffset":84960,"target":34962}],"buffers":[{"byteLength":94752,"uri":"tank3-v.1.1.bin"}],"images":[{"name":"target2_1","uri":"target2_1.png"}],"materials":[{"name":"brown","pbrMetallicRoughness":{"baseColorFactor":[0.15914750336330385,0.0592886218322608,0.020619225809264563,1.0],"metallicFactor":0.0}},{"name":"green","pbrMetallicRoughness":{"baseColorFactor":[0.39028428182429487,0.640000066757203,0.0,1.0],"metallicFactor":0.0}},{"name":"pink","pbrMetallicRoughness":{"baseColorFactor":[0.9500559568405151,0.2929164469242096,0.34381526708602905,1.0],"metallicFactor":0.0}},{"name":"target","pbrMetallicRoughness":{"baseColorFactor":[1.0,0.3277781009674072,0.34191441535949707,1.0],"baseColorTexture":{"index":0},"metallicFactor":0.0}},{"name":"voilette","pbrMetallicRoughness":{"baseColorFactor":[0.5908384919166565,0.12578405439853668,0.398517370223999,1.0],"metallicFactor":0.0}}],"meshes":[{"name":"Cylinder.005","primitives":[{"attributes":{"NORMAL":2,"POSITION":1},"indices":0,"material":0}]},{"name":"Cylinder.002","primitives":[{"attributes":{"NORMAL":5,"POSITION":4},"indices":3,"material":0}]},{"name":"Cylinder.003","primitives":[{"attributes":{"NORMAL":8,"POSITION":7},"indices":6,"material":0}]},{"name":"Cube","primitives":[{"attributes":{"NORMAL":11,"POSITION":10},"indices":9,"material":2}]},{"name":"Cube.003","primitives":[{"attributes":{"NORMAL":14,"POSITION":13},"indices":12,"material":4}]},{"name":"Cylinder.006","primitives":[{"attributes":{"NORMAL":17,"POSITION":16},"indices":15,"material":0}]},{"name":"Cube.002","primitives":[{"attributes":{"NORMAL":20,"POSITION":19},"indices":18,"material":2},{"attributes":{"NORMAL":23,"POSITION":22},"indices":21,"material":3},{"attributes":{"NORMAL":26,"POSITION":25},"indices":24,"material":4}]},{"name":"Cylinder.004","primitives":[{"attributes":{"NORMAL":29,"POSITION":28},"indices":27,"material":2},{"attributes":{"NORMAL":32,"POSITION":31},"indices":30,"material":1},{"attributes":{"NORMAL":35,"POSITION":34},"indices":33,"material":4}]},{"name":"Cylinder.001","primitives":[{"attributes":{"NORMAL":38,"POSITION":37},"indices":36}]},{"name":"Cylinder.007","primitives":[{"attributes":{"NORMAL":41,"POSITION":40},"indices":39,"material":1}]},{"name":"Cube.006","primitives":[{"attributes":{"NORMAL":44,"POSITION":43},"indices":42,"material":1}]}],"nodes":[{"name":"BezierCurve","rotation":[0.5,0.5,-0.5000000596046448,0.4999999701976776],"translation":[0.0,-0.5636847019195557,-0.0]},{"name":"Camera","rotation":[0.5469394326210022,0.2764500677585602,-0.254498690366745,0.7481064200401306],"translation":[7.263479709625244,2.4966535568237305,7.41088342666626]},{"mesh":3,"name":"Cube","rotation":[-0.0,-0.0,-1.0,0.0],"scale":[-0.8946475386619568,-0.5927330255508423,-1.7577368021011353],"translation":[0.0,-0.6503065228462219,0.046100273728370667]},{"mesh":6,"name":"Cube.001","rotation":[-0.016676200553774834,-2.2621363485204156e-24,3.702860363613521e-18,0.9998610019683838],"scale":[0.8251308798789978,0.5283768177032471,1.145702838897705],"translation":[2.5849394142282115e-26,0.523356020450592,0.0018335290951654315]},{"mesh":4,"name":"Cube.002","rotation":[-0.2476467788219452,2.151280250453283e-16,5.634917380794003e-23,0.9688504338264465],"scale":[0.3864608407020569,0.37417447566986084,0.06315281242132187],"translation":[1.2295633554458618,-0.40107229351997375,1.860145926475525]},{"mesh":10,"name":"Cube.003","scale":[0.0724775493144989,0.3392605483531952,0.23955200612545013],"translation":[0.0,-1.8039300441741943,-0.0]},{"mesh":8,"name":"Cylinder","rotation":[-3.953347196706829e-18,0.9998415112495422,-0.01780429482460022,-3.2058329000659446e-24],"scale":[-0.7057551145553589,-0.054663702845573425,-0.7057551145553589],"translation":[0.0,-0.04049842059612274,0.00033973989775404334]},{"mesh":1,"name":"Cylinder.001","rotation":[0.5,0.5,-0.5000000596046448,0.4999999701976776],"scale":[0.5048710703849792,0.3374235928058624,0.5048710703849792],"translation":[1.2364238500595093,-1.0062739849090576,0.6319891214370728]},{"mesh":2,"name":"Cylinder.002","rotation":[0.5,0.5,-0.5000000596046448,0.4999999701976776],"scale":[0.5048710703849792,0.3374235928058624,0.5048710703849792],"translation":[1.2364238500595093,-1.0062739849090576,-0.4540504217147827]},{"mesh":7,"name":"Cylinder.003","rotation":[-0.5095009803771973,-0.49031487107276917,0.5095011591911316,0.49031493067741394],"scale":[0.14380240440368652,0.7298107147216797,0.14380240440368652],"translation":[2.0852879135327006e-16,0.6407865881919861,1.5799484252929688]},{"mesh":0,"name":"Cylinder.004","rotation":[0.5,0.5,-0.5000000596046448,0.4999999701976776],"scale":[0.22101013362407684,0.3374235928058624,0.22101013362407684],"translation":[1.2364238500595093,-0.7963507771492004,1.3501474857330322]},{"mesh":5,"name":"Cylinder.005","rotation":[0.5,0.5,-0.5000000596046448,0.4999999701976776],"scale":[0.22101013362407684,0.3374235928058624,0.22101013362407684],"translation":[1.2364238500595093,-0.7963507771492004,-1.2128596305847168]},{"mesh":9,"name":"Cylinder.006","scale":[0.19488340616226196,0.04568658769130707,0.19488340616226196],"translation":[0.0,1.0690760612487793,-0.3448483943939209]},{"name":"Empty","rotation":[0.5,-0.5000000596046448,-0.5,0.4999999701976776]},{"name":"Lamp","rotation":[0.16574910283088684,0.7718940377235413,-0.2507432997226715,0.5602094531059265],"translation":[4.076245307922363,5.903861999511719,-1.0054539442062378]},{"name":"Lamp.001","rotation":[-0.02502542920410633,0.8949673175811768,0.40430206060409546,0.18694157898426056],"translation":[-1.3131771087646484,5.318653583526611,5.721864700317383]},{"name":"Lamp.002","rotation":[0.4743310809135437,-0.5915380716323853,-0.5620738863945007,0.33040228486061096],"scale":[1.0,0.9999999403953552,1.0],"translation":[-1.5176656246185303,-0.9114046096801758,7.970868110656738]}],"samplers":[{},{"magFilter":9729,"minFilter":9986,"wrapS":33071,"wrapT":33071}],"scene":0,"scenes":[{"name":"Scene","nodes":[16,15,12,13,10,9,8,7,0,5,4,6,3,2,14,1,11]}],"textures":[{"sampler":1,"source":0}]}
